<svg width="23" height="33" viewBox="0 0 23 33" fill="none" xmlns="http://www.w3.org/2000/svg">
<path fill-rule="evenodd" clip-rule="evenodd" d="M8.55178 0C13.942 1.92279 16.0321 6.84689 14.8221 14.7723C9.33522 10.8002 6.79253 6.00169 8.55178 0ZM22.9966 7.00244C19.0208 7.4241 16.7598 10.3533 15.6752 15C20.6639 13.7144 23.1044 11.0485 22.9966 7.00244Z" fill="#209041"/>
<path fill-rule="evenodd" clip-rule="evenodd" d="M16.8071 31.8048C18.2081 32.1034 19.8249 32.5901 21.1894 32.8618C22.3411 33.0946 22.285 33.1842 22.5904 31.8645C24.3249 24.5106 20.3909 17.1268 13.809 15.3742C8.67292 14.0097 3.44159 16.4789 0.561134 21.1218C-0.209415 22.3668 -0.279464 22.2862 0.942206 22.743C2.41045 23.2924 3.90672 23.8 5.38617 24.3314C6.42319 22.9891 7.88079 22.0916 9.49008 21.8046C11.0994 21.5175 12.7518 21.8603 14.1425 22.7697C15.5332 23.6791 16.5684 25.0937 17.0571 26.7526C17.5458 28.4115 17.455 30.2027 16.8015 31.7958L16.8071 31.8048Z" fill="#ED6B06"/>
</svg>
