<svg width="18" height="18" viewBox="0 0 18 18" fill="none" xmlns="http://www.w3.org/2000/svg">
<g clip-path="url(#clip0_47_18515)">
<path d="M12.6576 0.0760204C12.7677 0.139851 12.8529 0.239134 12.8993 0.35765C12.9457 0.476166 12.9505 0.606909 12.913 0.72852L10.8868 7.31202H14.6252C14.7351 7.31198 14.8426 7.3441 14.9344 7.40444C15.0262 7.46478 15.0983 7.55068 15.1419 7.65154C15.1854 7.7524 15.1985 7.8638 15.1794 7.972C15.1604 8.0802 15.1101 8.18046 15.0347 8.2604L6.03472 17.8229C5.94764 17.9155 5.83176 17.9759 5.70597 17.9942C5.58018 18.0125 5.4519 17.9877 5.34203 17.9237C5.23216 17.8598 5.14719 17.7605 5.10096 17.6421C5.05474 17.5237 5.04998 17.3931 5.08747 17.2716L7.1136 10.687H3.37522C3.26536 10.6871 3.15789 10.6549 3.06608 10.5946C2.97427 10.5343 2.90214 10.4484 2.85859 10.3475C2.81503 10.2466 2.80197 10.1352 2.82101 10.027C2.84005 9.91884 2.89036 9.81858 2.96572 9.73864L11.9657 0.176145C12.0527 0.0836694 12.1684 0.0233351 12.294 0.00495251C12.4196 -0.01343 12.5478 0.0112203 12.6576 0.0748954V0.0760204Z" fill="#ED6B06"/>
</g>
<defs>
<clipPath id="clip0_47_18515">
<rect width="18" height="18" fill="white"/>
</clipPath>
</defs>
</svg>
