<svg width="20" height="20" viewBox="0 0 20 20" fill="none" xmlns="http://www.w3.org/2000/svg">
<g clip-path="url(#clip0_45_882)">
<path d="M12.1598 3.056C12.2399 3.10242 12.3019 3.17462 12.3356 3.26081C12.3693 3.347 12.3728 3.44208 12.3455 3.53052L10.872 8.31835H13.5908C13.6707 8.31832 13.7488 8.34168 13.8156 8.38556C13.8824 8.42944 13.9348 8.49191 13.9665 8.56526C13.9982 8.63861 14.0077 8.71963 13.9938 8.79832C13.98 8.87701 13.9434 8.94992 13.8886 9.00805L7.34335 15.9623C7.28002 16.0297 7.19575 16.0736 7.10427 16.0869C7.01278 16.1002 6.91949 16.0822 6.83959 16.0357C6.75969 15.9892 6.69789 15.917 6.66428 15.8309C6.63066 15.7447 6.6272 15.6498 6.65447 15.5615L8.12796 10.7728H5.40924C5.32934 10.7728 5.25119 10.7495 5.18442 10.7056C5.11765 10.6617 5.06519 10.5992 5.03352 10.5259C5.00184 10.4525 4.99234 10.3715 5.00619 10.2928C5.02004 10.2141 5.05662 10.1412 5.11143 10.0831L11.6566 3.12881C11.7199 3.06156 11.804 3.01768 11.8954 3.00431C11.9868 2.99094 12.0799 3.00887 12.1598 3.05518V3.056Z" fill="#ED6B06"/>
</g>
<defs>
<clipPath id="clip0_45_882">
<rect width="20" height="20" fill="white"/>
</clipPath>
</defs>
</svg>
