<svg width="32" height="32" viewBox="0 0 32 32" fill="none" xmlns="http://www.w3.org/2000/svg">
<path d="M17.8799 16.0006L23.6133 10.2806C23.8643 10.0295 24.0054 9.68898 24.0054 9.33391C24.0054 8.97884 23.8643 8.63831 23.6133 8.38724C23.3622 8.13617 23.0217 7.99512 22.6666 7.99512C22.3115 7.99512 21.971 8.13617 21.7199 8.38724L15.9999 14.1206L10.2799 8.38724C10.0288 8.13617 9.68832 7.99512 9.33325 7.99512C8.97818 7.99512 8.63766 8.13617 8.38659 8.38724C8.13551 8.63831 7.99446 8.97884 7.99446 9.33391C7.99446 9.68898 8.13551 10.0295 8.38659 10.2806L14.1199 16.0006L8.38659 21.7206C8.26161 21.8445 8.16242 21.992 8.09473 22.1545C8.02704 22.317 7.99219 22.4912 7.99219 22.6672C7.99219 22.8433 8.02704 23.0175 8.09473 23.18C8.16242 23.3425 8.26161 23.49 8.38659 23.6139C8.51054 23.7389 8.658 23.8381 8.82048 23.9058C8.98296 23.9735 9.15724 24.0083 9.33325 24.0083C9.50927 24.0083 9.68354 23.9735 9.84602 23.9058C10.0085 23.8381 10.156 23.7389 10.2799 23.6139L15.9999 17.8806L21.7199 23.6139C21.8439 23.7389 21.9913 23.8381 22.1538 23.9058C22.3163 23.9735 22.4906 24.0083 22.6666 24.0083C22.8426 24.0083 23.0169 23.9735 23.1794 23.9058C23.3418 23.8381 23.4893 23.7389 23.6133 23.6139C23.7382 23.49 23.8374 23.3425 23.9051 23.18C23.9728 23.0175 24.0077 22.8433 24.0077 22.6672C24.0077 22.4912 23.9728 22.317 23.9051 22.1545C23.8374 21.992 23.7382 21.8445 23.6133 21.7206L17.8799 16.0006Z" fill="white"/>
</svg>
