<svg width="36" height="36" viewBox="0 0 36 36" fill="none" xmlns="http://www.w3.org/2000/svg">
<path d="M0 18C0 8.05887 8.05887 0 18 0V0C27.9411 0 36 8.05887 36 18V18C36 27.9411 27.9411 36 18 36V36C8.05887 36 0 27.9411 0 18V18Z" fill="#F7F7F7"/>
<path d="M24.1 17.8C24.1 18.2971 23.6971 18.7 23.2 18.7H18.7V23.2C18.7 23.6971 18.2971 24.1 17.8 24.1V24.1C17.3029 24.1 16.9 23.6971 16.9 23.2V18.7H12.4C11.9029 18.7 11.5 18.2971 11.5 17.8V17.8C11.5 17.3029 11.9029 16.9 12.4 16.9H16.9V12.4C16.9 11.9029 17.3029 11.5 17.8 11.5V11.5C18.2971 11.5 18.7 11.9029 18.7 12.4V16.9H23.2C23.6971 16.9 24.1 17.3029 24.1 17.8V17.8Z" fill="#1B1B1B"/>
</svg>
