<svg width="21" height="18" viewBox="0 0 21 18" fill="none" xmlns="http://www.w3.org/2000/svg">
<g clip-path="url(#clip0_48_1741)">
<path d="M20.25 7.59385V8.15635C20.25 8.62235 19.8722 9.0001 19.4062 9.0001H19.125L18.207 15.4262C18.0882 16.2576 17.3762 16.8751 16.5364 16.8751H3.71355C2.87378 16.8751 2.16179 16.2576 2.043 15.4262L1.125 9.0001H0.84375C0.377754 9.0001 0 8.62235 0 8.15635V7.59385C0 7.12785 0.377754 6.7501 0.84375 6.7501H3.21121L6.96519 1.58842C7.33064 1.08597 8.03419 0.974842 8.53671 1.34029C9.0392 1.70574 9.15029 2.40932 8.78484 2.91181L5.99333 6.7501H14.2567L11.4652 2.91178C11.0997 2.40932 11.2108 1.70571 11.7133 1.34026C12.2157 0.974807 12.9194 1.0859 13.2848 1.58839L17.0388 6.7501H19.4062C19.8722 6.7501 20.25 7.12785 20.25 7.59385ZM10.9688 13.7813V9.84385C10.9688 9.37785 10.591 9.0001 10.125 9.0001C9.659 9.0001 9.28125 9.37785 9.28125 9.84385V13.7813C9.28125 14.2473 9.659 14.6251 10.125 14.6251C10.591 14.6251 10.9688 14.2473 10.9688 13.7813ZM14.9062 13.7813V9.84385C14.9062 9.37785 14.5285 9.0001 14.0625 9.0001C13.5965 9.0001 13.2188 9.37785 13.2188 9.84385V13.7813C13.2188 14.2473 13.5965 14.6251 14.0625 14.6251C14.5285 14.6251 14.9062 14.2473 14.9062 13.7813ZM7.03125 13.7813V9.84385C7.03125 9.37785 6.6535 9.0001 6.1875 9.0001C5.7215 9.0001 5.34375 9.37785 5.34375 9.84385V13.7813C5.34375 14.2473 5.7215 14.6251 6.1875 14.6251C6.6535 14.6251 7.03125 14.2473 7.03125 13.7813Z" fill="white"/>
</g>
<defs>
<clipPath id="clip0_48_1741">
<rect width="20.25" height="18" fill="white"/>
</clipPath>
</defs>
</svg>
