<svg width="20" height="20" viewBox="0 0 20 20" fill="none" xmlns="http://www.w3.org/2000/svg">
<path fill-rule="evenodd" clip-rule="evenodd" d="M5.83398 18.2606C5.83398 17.3001 6.58018 16.5215 7.50065 16.5215C8.42112 16.5215 9.16732 17.3001 9.16732 18.2606C9.16732 19.2211 8.42112 19.9997 7.50065 19.9997C6.58018 19.9997 5.83398 19.2211 5.83398 18.2606Z" fill="white"/>
<path fill-rule="evenodd" clip-rule="evenodd" d="M15 18.2606C15 17.3001 15.7462 16.5215 16.6667 16.5215C17.5871 16.5215 18.3333 17.3001 18.3333 18.2606C18.3333 19.2211 17.5871 19.9997 16.6667 19.9997C15.7462 19.9997 15 19.2211 15 18.2606Z" fill="white"/>
<path fill-rule="evenodd" clip-rule="evenodd" d="M0 0.869565C0 0.389318 0.373096 0 0.833333 0H4.16667C4.56385 0 4.90584 0.292509 4.98379 0.698907L5.68369 4.34783H19.1667C19.415 4.34783 19.6504 4.46342 19.8087 4.66309C19.9671 4.86277 20.0318 5.12572 19.9852 5.38028L18.6507 12.6825C18.5364 13.283 18.2233 13.8224 17.7663 14.2063C17.3115 14.5883 16.743 14.7921 16.1595 14.7826H8.07387C7.49031 14.7921 6.92183 14.5883 6.46706 14.2063C6.0102 13.8226 5.69719 13.2834 5.58277 12.6832C5.58273 12.6829 5.58282 12.6834 5.58277 12.6832L4.19066 5.42539C4.18501 5.40139 4.18032 5.37699 4.17663 5.35224L3.4836 1.73913H0.833333C0.373096 1.73913 0 1.34981 0 0.869565ZM6.01727 6.08696L7.21737 12.3436C7.25547 12.5438 7.35983 12.7236 7.51217 12.8516C7.66452 12.9796 7.85515 13.0475 8.0507 13.0436L8.06666 13.0435H16.1667L16.1826 13.0436C16.3782 13.0475 16.5688 12.9796 16.7212 12.8516C16.8728 12.7242 16.9769 12.5455 17.0154 12.3464L18.1594 6.08696H6.01727Z" fill="white"/>
</svg>
