<svg width="44" height="43" viewBox="0 0 44 43" fill="none" xmlns="http://www.w3.org/2000/svg">
<g filter="url(#filter0_d_45_252)">
<path d="M21.084 24.4997H22.9173V22.6663H21.084V24.4997ZM22.0007 9.83301C16.9407 9.83301 12.834 13.9397 12.834 18.9997C12.834 24.0597 16.9407 28.1663 22.0007 28.1663C27.0607 28.1663 31.1673 24.0597 31.1673 18.9997C31.1673 13.9397 27.0607 9.83301 22.0007 9.83301ZM22.0007 26.333C17.9582 26.333 14.6673 23.0422 14.6673 18.9997C14.6673 14.9572 17.9582 11.6663 22.0007 11.6663C26.0432 11.6663 29.334 14.9572 29.334 18.9997C29.334 23.0422 26.0432 26.333 22.0007 26.333ZM22.0007 13.4997C19.9748 13.4997 18.334 15.1405 18.334 17.1663H20.1673C20.1673 16.158 20.9923 15.333 22.0007 15.333C23.009 15.333 23.834 16.158 23.834 17.1663C23.834 18.9997 21.084 18.7705 21.084 21.7497H22.9173C22.9173 19.6872 25.6673 19.458 25.6673 17.1663C25.6673 15.1405 24.0265 13.4997 22.0007 13.4997Z" fill="#7B7B7B"/>
</g>
<defs>
<filter id="filter0_d_45_252" x="-1.22222" y="-1.77778" width="46.4444" height="46.4444" filterUnits="userSpaceOnUse" color-interpolation-filters="sRGB">
<feFlood flood-opacity="0" result="BackgroundImageFix"/>
<feColorMatrix in="SourceAlpha" type="matrix" values="0 0 0 0 0 0 0 0 0 0 0 0 0 0 0 0 0 0 127 0" result="hardAlpha"/>
<feOffset dy="2.44444"/>
<feGaussianBlur stdDeviation="6.11111"/>
<feColorMatrix type="matrix" values="0 0 0 0 0 0 0 0 0 0 0 0 0 0 0 0 0 0 0.08 0"/>
<feBlend mode="normal" in2="BackgroundImageFix" result="effect1_dropShadow_45_252"/>
<feBlend mode="normal" in="SourceGraphic" in2="effect1_dropShadow_45_252" result="shape"/>
</filter>
</defs>
</svg>
